<?xml version="1.0"?>
<!--Icons from directory ""-->
<svg xmlns="http://www.w3.org/2000/svg" width="55" height="344" viewBox="0 0 55 344"><svg xmlns:xlink="http://www.w3.org/1999/xlink" style="enable-background:new 0 0 55.269 50.548" xml:space="preserve" height="51" width="55" version="1.1" y="0" x="0px" viewBox="0 0 55.269 50.548" id="ud_icons-03"><g id="ud_icons-03-Guides">	<g id="ud_icons-03-_x34_8px">		<g id="ud_icons-03-square_4px">			<g id="ud_icons-03-_x32_8_px">			</g>		</g>	</g>	<g id="ud_icons-03-square_6px">	</g>	<g id="ud_icons-03-_x33_6_px">		<g id="ud_icons-03-_x33_2_px">			<g id="ud_icons-03-_x32_8_px_1_">				<g id="ud_icons-03-_x32_0_px_1_">					<g id="ud_icons-03-_x34_8_px">					</g>				</g>			</g>		</g>	</g>	<g id="ud_icons-03-New_Symbol_8">	</g></g><g id="ud_icons-03-Free_Icons">	<g stroke-linejoin="round" stroke="#fff" stroke-linecap="round" stroke-miterlimit="10" fill="none">		<polygon points="0.5 38.251 12.298 38.251 21.735 28.813 9.938 28.813"/>			<line y2="28.813" x2="21.735" y1="38.251" x1="31.174"/>		<polyline points="5.22 38.251 5.22 50.048 17.017 50.048 17.017 33.532"/>		<polyline points="17.017 50.048 26.454 50.048 26.454 33.532"/>		<polygon points="13.478 12.296 31.174 12.296 42.972 0.5 25.274 0.5"/>			<line y2=".5" x2="42.972" y1="12.296" x1="54.769"/>			<line y2="7.577" x2="35.892" y1="45.329" x1="35.892"/>			<line y2="24.095" x2="19.376" y1="12.296" x1="19.376"/>		<polyline points="33.532 45.329 50.049 45.329 50.049 7.577"/>			<line y2="15.835" x2="40.612" y1="13.477" x1="40.612"/>			<line y2="15.835" x2="46.511" y1="13.477" x1="46.511"/>			<line y2="25.274" x2="40.612" y1="22.914" x1="40.612"/>			<line y2="25.274" x2="46.511" y1="22.914" x1="46.511"/>			<line y2="34.711" x2="40.612" y1="32.353" x1="40.612"/>			<line y2="34.711" x2="46.511" y1="32.353" x1="46.511"/>			<line y2="50.048" x2="21.735" y1="45.329" x1="21.735"/>	</g></g></svg><svg xmlns:xlink="http://www.w3.org/1999/xlink" style="enable-background:new 0 0 55.269 52.908" xml:space="preserve" height="53" width="55" version="1.1" y="51" x="0px" viewBox="0 0 55.269 52.908" id="ud_icons-04"><g id="ud_icons-04-Guides">	<g id="ud_icons-04-_x34_8px">		<g id="ud_icons-04-square_4px">			<g id="ud_icons-04-_x32_8_px">			</g>		</g>	</g>	<g id="ud_icons-04-square_6px">	</g>	<g id="ud_icons-04-_x33_6_px">		<g id="ud_icons-04-_x33_2_px">			<g id="ud_icons-04-_x32_8_px_1_">				<g id="ud_icons-04-_x32_0_px_1_">					<g id="ud_icons-04-_x34_8_px">					</g>				</g>			</g>		</g>	</g>	<g id="ud_icons-04-New_Symbol_8">	</g></g><g id="ud_icons-04-Free_Icons">	<g stroke-linejoin="round" stroke="#fff" stroke-miterlimit="10" fill="none">		<polygon points="17.018 24.095 28.814 52.408 5.22 52.408"/>		<polyline points="23.912 40.643 37.072 9.937 54.769 52.408 28.814 52.408"/>		<polyline stroke-linecap="round" points="0.5 5.219 5.22 0.5 9.938 5.219 14.656 0.5 19.377 5.219 24.095 0.5 28.814 5.219"/>		<polyline stroke-linecap="round" points="0.5 14.655 5.22 9.937 9.938 14.655 14.656 9.937 19.377 14.655"/>		<polyline points="29.992 26.453 33.533 29.992 37.072 26.453 40.611 29.992 44.012 26.592"/>	</g></g></svg><svg xmlns:xlink="http://www.w3.org/1999/xlink" style="enable-background:new 0 0 35.239 53.5" xml:space="preserve" height="54" width="35" version="1.1" y="104" x="0px" viewBox="0 0 35.239 53.5" id="ud_icons-05"><g id="ud_icons-05-Guides">	<g id="ud_icons-05-_x34_8px">		<g id="ud_icons-05-square_4px">			<g id="ud_icons-05-_x32_8_px">			</g>		</g>	</g>	<g id="ud_icons-05-square_6px">	</g>	<g id="ud_icons-05-_x33_6_px">		<g id="ud_icons-05-_x33_2_px">			<g id="ud_icons-05-_x32_8_px_1_">				<g id="ud_icons-05-_x32_0_px_1_">					<g id="ud_icons-05-_x34_8_px">					</g>				</g>			</g>		</g>	</g>	<g id="ud_icons-05-New_Symbol_8">	</g></g><g id="ud_icons-05-Free_Icons">	<g stroke-linejoin="round" stroke="#fff" stroke-linecap="round" stroke-miterlimit="10" fill="none">			<line y2="11.912" x2="17.619" y1="25.609" x1="17.619"/>			<line y2="18.761" x2="24.468" y1="18.761" x1="10.771"/>		<polygon points="34.739 27.891 26.75 29.033 17.619 53 9.63 32.457 0.5 34.738 0.5 7.349 34.739 0.5"/>	</g></g></svg><svg xmlns:xlink="http://www.w3.org/1999/xlink" style="enable-background:new 0 0 52.908 55.269" xml:space="preserve" height="55" width="53" version="1.1" y="158" x="0px" viewBox="0 0 52.908 55.269" id="ud_icons-06"><g id="ud_icons-06-Guides">	<g id="ud_icons-06-_x34_8px">		<g id="ud_icons-06-square_4px">			<g id="ud_icons-06-_x32_8_px">			</g>		</g>	</g>	<g id="ud_icons-06-square_6px">	</g>	<g id="ud_icons-06-_x33_6_px">		<g id="ud_icons-06-_x33_2_px">			<g id="ud_icons-06-_x32_8_px_1_">				<g id="ud_icons-06-_x32_0_px_1_">					<g id="ud_icons-06-_x34_8_px">					</g>				</g>			</g>		</g>	</g>	<g id="ud_icons-06-New_Symbol_8">	</g></g><g id="ud_icons-06-Free_Icons">	<g stroke-linejoin="round" stroke="#3F4552" stroke-linecap="round" stroke-miterlimit="10" fill="none">		<polyline points="21.735 50.05 21.735 19.376 15.837 12.297 14.656 18.196 8.758 18.196 2.859 28.813 13.477 28.813 13.477 35.892 6.398 35.892 13.477 42.971 7.578 42.971 0.5 54.769 9.938 50.05 37.071 50.05 42.971 45.329 42.971 14.657 52.408 14.657 42.971 0.5 31.173 8.758 25.273 50.05"/>			<line y2="24.095" x2="12.297" y1="22.915" x1="12.297"/>	</g></g></svg><svg xmlns:xlink="http://www.w3.org/1999/xlink" style="enable-background:new 0 0 12 16" xml:space="preserve" height="16" width="12" version="1.1" y="213" x="0px" viewBox="0 0 12 16" id="ud_icons-07"><g id="ud_icons-07-Guides">	<g id="ud_icons-07-_x34_8px">		<g id="ud_icons-07-square_4px">			<g id="ud_icons-07-_x32_8_px">			</g>		</g>	</g>	<g id="ud_icons-07-square_6px">	</g>	<g id="ud_icons-07-_x33_6_px">		<g id="ud_icons-07-_x33_2_px">			<g id="ud_icons-07-_x32_8_px_1_">				<g id="ud_icons-07-_x32_0_px_1_">					<g id="ud_icons-07-_x34_8_px">					</g>				</g>			</g>		</g>	</g>	<g id="ud_icons-07-New_Symbol_8">	</g></g><g id="ud_icons-07-Free_Icons">	<g stroke-linejoin="round" stroke="#3F4552" stroke-miterlimit="10" fill="none">		<polyline stroke-linecap="round" points="9.5 7 5.5 11 1.5 7"/>			<line x2="5.5" stroke-linecap="round" y1="11" x1="5.5"/>		<line y2="16" x2="0" y1="16" x1="12"/>	</g></g></svg><svg xmlns:xlink="http://www.w3.org/1999/xlink" style="enable-background:new 0 0 12 16" xml:space="preserve" height="16" width="12" version="1.1" y="229" x="0px" viewBox="0 0 12 16" id="ud_icons-08"><g id="ud_icons-08-Guides">	<g id="ud_icons-08-_x34_8px">		<g id="ud_icons-08-square_4px">			<g id="ud_icons-08-_x32_8_px">			</g>		</g>	</g>	<g id="ud_icons-08-square_6px">	</g>	<g id="ud_icons-08-_x33_6_px">		<g id="ud_icons-08-_x33_2_px">			<g id="ud_icons-08-_x32_8_px_1_">				<g id="ud_icons-08-_x32_0_px_1_">					<g id="ud_icons-08-_x34_8_px">					</g>				</g>			</g>		</g>	</g>	<g id="ud_icons-08-New_Symbol_8">	</g></g><g id="ud_icons-08-Free_Icons" stroke-linejoin="round" stroke="#3F4552" stroke-miterlimit="10" fill="none">		<circle stroke-linecap="round" cy="9.269" cx="6" r="18"/>		<polyline stroke-linecap="round" points="9.5 7 5.5 11 1.5 7"/>			<line x2="5.5" stroke-linecap="round" y1="11" x1="5.5"/>		<line y2="16" x2="0" y1="16" x1="12"/></g></svg><svg xmlns:xlink="http://www.w3.org/1999/xlink" style="enable-background:new 0 0 38.137 19" xml:space="preserve" height="19" width="38" version="1.1" y="245" x="0px" viewBox="0 0 38.137 19" id="ud_icons-09"><g id="ud_icons-09-Guides">	<g id="ud_icons-09-_x34_8px">		<g id="ud_icons-09-square_4px">			<g id="ud_icons-09-_x32_8_px">			</g>		</g>	</g>	<g id="ud_icons-09-square_6px">	</g>	<g id="ud_icons-09-_x33_6_px">		<g id="ud_icons-09-_x33_2_px">			<g id="ud_icons-09-_x32_8_px_1_">				<g id="ud_icons-09-_x32_0_px_1_">					<g id="ud_icons-09-_x34_8_px">					</g>				</g>			</g>		</g>	</g>	<g id="ud_icons-09-New_Symbol_8">	</g></g><g id="ud_icons-09-Free_Icons">	<g stroke-linejoin="round" stroke="#3F4552" stroke-linecap="round" stroke-miterlimit="10" fill="none">			<line y2="3.772" x2="11.455" y1="3.772"/>			<line y2="8.682" x2="11.455" y1="8.682" x1="4.092"/>			<line y2="13.591" x2="11.455" y1="13.591" x1="8.182"/>			<rect height="18" width="22.909" y=".5" x="14.728"/>		<polyline points="14.728 0.5 26.182 10.318 37.637 0.5"/>	</g></g></svg><svg xmlns:xlink="http://www.w3.org/1999/xlink" style="enable-background:new 0 0 43.5 43.499" xml:space="preserve" height="43" width="44" version="1.1" y="264" x="0px" viewBox="0 0 43.5 43.499" id="ud_icons-10"><g id="ud_icons-10-Guides">	<g id="ud_icons-10-_x34_8px">		<g id="ud_icons-10-square_4px">			<g id="ud_icons-10-_x32_8_px">			</g>		</g>	</g>	<g id="ud_icons-10-square_6px">	</g>	<g id="ud_icons-10-_x33_6_px">		<g id="ud_icons-10-_x33_2_px">			<g id="ud_icons-10-_x32_8_px_1_">				<g id="ud_icons-10-_x32_0_px_1_">					<g id="ud_icons-10-_x34_8_px">					</g>				</g>			</g>		</g>	</g>	<g id="ud_icons-10-New_Symbol_8">	</g></g><g id="ud_icons-10-Free_Icons">	<g stroke-linejoin="round" stroke="#fff" stroke-linecap="round" stroke-miterlimit="10" fill="none">		<polygon points="4.195 28.218 0.5 33.761 13.435 33.761 13.435 28.218"/>		<polyline points="13.435 42.999 13.435 20.826 20.826 13.435 28.217 20.826 28.217 42.999"/>			<line y2="20.826" x2="28.217" y1="20.826" x1="13.435"/>			<line y2="7.891" x2="33.761" y1="7.891" x1="31.912"/>			<line y2="7.891" x2="39.304" y1="7.891" x1="37.457"/>			<line y2="13.435" x2="33.761" y1="13.435" x1="31.912"/>			<line y2="13.435" x2="39.304" y1="13.435" x1="37.457"/>			<line y2="18.979" x2="33.761" y1="18.979" x1="31.912"/>			<line y2="18.979" x2="39.304" y1="18.979" x1="37.457"/>			<line y2="24.521" x2="33.761" y1="24.521" x1="31.912"/>			<line y2="24.521" x2="39.304" y1="24.521" x1="37.457"/>			<line y2="30.065" x2="33.761" y1="30.065" x1="31.912"/>			<line y2="30.065" x2="39.304" y1="30.065" x1="37.457"/>			<line y2="35.608" x2="33.761" y1="35.608" x1="31.912"/>			<line y2="35.608" x2="39.304" y1="35.608" x1="37.457"/>		</g>				<rect stroke-linejoin="round" height="5.544" width="7.391" stroke="#fff" stroke-linecap="round" stroke-miterlimit="10" y="24.521" x="17.131" fill="none"/>				<rect stroke-linejoin="round" height="5.544" width="7.391" stroke="#fff" stroke-linecap="round" stroke-miterlimit="10" y="33.761" x="17.131" fill="none"/>		<g stroke-linejoin="round" stroke="#fff" stroke-linecap="round" stroke-miterlimit="10" fill="none">		<polyline points="6.044 42.999 6.044 37.457 9.739 37.457 9.739 42.999"/>		<polyline points="28.217 20.826 28.217 4.195 43 4.195 43 42.999 2.348 42.999 2.348 33.761"/>		<polygon points="4.195 9.739 0.5 6.043 4.195 3.271 4.195 0.5 7.891 0.5 9.739 2.348 16.207 2.348 19.902 6.043 16.207 9.739"/>	</g></g></svg><svg xmlns:xlink="http://www.w3.org/1999/xlink" style="enable-background:new 0 0 37 37" xml:space="preserve" height="37" width="37" version="1.1" y="307" x="0px" viewBox="0 0 37 37" id="ud_icons-21"><g id="ud_icons-21-Guides">	<g id="ud_icons-21-_x34_8px">		<g id="ud_icons-21-square_4px">			<g id="ud_icons-21-_x32_8_px">			</g>		</g>	</g>	<g id="ud_icons-21-square_6px">	</g>	<g id="ud_icons-21-_x33_6_px">		<g id="ud_icons-21-_x33_2_px">			<g id="ud_icons-21-_x32_8_px_1_">				<g id="ud_icons-21-_x32_0_px_1_">					<g id="ud_icons-21-_x34_8_px">					</g>				</g>			</g>		</g>	</g>	<g id="ud_icons-21-New_Symbol_8">	</g></g><g id="ud_icons-21-Free_Icons" stroke-linejoin="round" stroke="#3F4552" stroke-miterlimit="10" fill="none">		<circle stroke-linecap="round" cy="18.5" cx="18.5" r="18"/>		<polyline stroke-linecap="round" points="22 16.231 18 20.231 14 16.231"/>			<line y2="9.231" x2="18" stroke-linecap="round" y1="20.231" x1="18"/>			<line y2="25.231" x2="12.5" y1="25.231" x1="24.5"/></g></svg></svg>
