<?xml version="1.0" encoding="utf-8"?>
<!-- Generator: Adobe Illustrator 15.0.0, SVG Export Plug-In . SVG Version: 6.00 Build 0)  -->
<!DOCTYPE svg PUBLIC "-//W3C//DTD SVG 1.1//EN" "http://www.w3.org/Graphics/SVG/1.1/DTD/svg11.dtd">
<svg version="1.1" xmlns="http://www.w3.org/2000/svg" xmlns:xlink="http://www.w3.org/1999/xlink" x="0px" y="0px"
	 width="353.366px" height="55.795px" viewBox="0 0 353.366 55.795" enable-background="new 0 0 353.366 55.795"
	 xml:space="preserve">
<g id="Guides">
	<g id="_x32_0_px_2_">
	</g>
	<g id="_x32_0px">
	</g>
	<g id="_x34_0px">
	</g>
	<g id="_x34_4_px">
	</g>
	<g id="_x34_8px">
		<g id="_x31_6px">
		</g>
		<g id="square_4px">
			<g id="_x32_8_px">
				<g id="square_4px_2_">
				</g>
				<g id="square_4px_3_">
				</g>
				<g id="square_4px_1_">
				</g>
				<g id="_x32_4_px_2_">
				</g>
				<g id="_x31_2_px">
				</g>
			</g>
		</g>
	</g>
	<g id="Icons">
	</g>
	<g id="_x32_0_px">
	</g>
	<g id="square_6px">
		<g id="_x31_2_PX">
		</g>
	</g>
	<g id="_x33_6_px">
		<g id="_x33_2_px">
			<g id="_x32_8_px_1_">
				<g id="square_6px_1_">
				</g>
				<g id="_x32_0_px_1_">
					<g id="_x31_2_PX_2_">
					</g>
					<g id="_x34_8_px">
						<g id="_x32_4_px">
						</g>
						<g id="_x32_4_px_1_">
						</g>
					</g>
				</g>
			</g>
		</g>
	</g>
	<g id="_x32_0_px_3_">
	</g>
	<g id="_x32_0_px_4_">
	</g>
	<g id="New_Symbol_8">
		<g id="_x32_4_px_3_">
		</g>
	</g>
</g>
<g id="Free_Icons">
	<path fill="#336600" d="M116.11,47.9h0.811v2.779l0.398-0.121l1.84-2.658h0.959l-1.865,2.625l-0.391,0.285l0.484,0.354l2.064,2.78
		h-1.045l-2.021-2.764h-0.424v2.764h-0.811v-2.868l-0.398,0.121l-2.012,2.747h-0.994l2.039-2.694l0.457-0.329l-0.439-0.311
		l-1.928-2.711h1.002l1.85,2.676h0.424V47.9z M128.644,49.947l0.053-0.666h-0.035l-0.414,0.682l-3.102,3.982h-0.527V47.9h0.863
		v4.023l-0.078,0.658h0.043l0.434-0.683l3.092-3.999h0.535v6.045h-0.863V49.947z M137.999,48.659h-1.9
		c-0.029,0.571-0.062,1.089-0.1,1.555c-0.039,0.466-0.086,0.89-0.143,1.265c-0.059,0.377-0.125,0.711-0.203,1
		c-0.078,0.287-0.174,0.537-0.289,0.75c-0.15,0.276-0.324,0.473-0.518,0.588c-0.197,0.114-0.402,0.172-0.615,0.172
		c-0.119,0-0.221-0.008-0.297-0.021c-0.078-0.014-0.158-0.036-0.238-0.064l0.111-0.725c0.07,0.016,0.139,0.025,0.209,0.025
		c0.068,0,0.139-0.014,0.211-0.039s0.143-0.07,0.211-0.13c0.07-0.062,0.137-0.146,0.199-0.255c0.086-0.149,0.168-0.352,0.242-0.605
		c0.074-0.253,0.141-0.575,0.199-0.967c0.057-0.391,0.104-0.859,0.143-1.404c0.037-0.543,0.064-1.178,0.082-1.902h3.559v6.045
		h-0.863V48.659z M143.587,50.922c0-0.494,0.062-0.938,0.186-1.324c0.125-0.391,0.303-0.718,0.535-0.984
		c0.234-0.27,0.52-0.475,0.855-0.613c0.338-0.143,0.719-0.213,1.145-0.213c0.455,0,0.854,0.076,1.197,0.229
		c0.342,0.152,0.627,0.366,0.854,0.639c0.229,0.273,0.398,0.604,0.51,0.989c0.113,0.386,0.17,0.812,0.17,1.278
		c0,0.495-0.062,0.938-0.188,1.326c-0.123,0.389-0.303,0.717-0.539,0.984s-0.521,0.473-0.859,0.613
		c-0.336,0.141-0.719,0.213-1.145,0.213c-0.461,0-0.861-0.078-1.201-0.229c-0.34-0.152-0.621-0.367-0.846-0.641
		c-0.225-0.272-0.393-0.603-0.504-0.99C143.644,51.816,143.587,51.389,143.587,50.922z M144.503,50.922
		c0,0.326,0.035,0.633,0.107,0.918s0.182,0.537,0.328,0.755s0.334,0.39,0.562,0.515c0.227,0.125,0.496,0.189,0.807,0.189
		c0.559,0,1-0.193,1.326-0.576c0.326-0.381,0.488-0.982,0.488-1.801c0-0.32-0.035-0.623-0.109-0.908
		c-0.07-0.287-0.18-0.536-0.326-0.756c-0.148-0.217-0.334-0.391-0.562-0.52c-0.229-0.127-0.5-0.191-0.816-0.191
		c-0.553,0-0.992,0.195-1.316,0.582C144.665,49.52,144.503,50.116,144.503,50.922z M157.788,49.947l0.051-0.666h-0.033l-0.414,0.682
		l-3.102,3.982h-0.527V47.9h0.863v4.023l-0.078,0.658h0.043l0.432-0.683l3.094-3.999h0.535v6.045h-0.863V49.947z M155.438,46.422
		c0.029,0.207,0.117,0.365,0.264,0.471s0.342,0.16,0.582,0.16c0.242,0,0.438-0.055,0.584-0.16s0.234-0.26,0.264-0.461l0.725,0.154
		c-0.074,0.316-0.238,0.564-0.492,0.744c-0.254,0.178-0.615,0.268-1.088,0.268c-0.455,0-0.828-0.078-1.119-0.234
		c-0.291-0.154-0.465-0.408-0.523-0.76L155.438,46.422z M170.899,51.198h-0.422v2.747h-0.865V47.9h0.865v2.779l0.396-0.121
		l2.178-2.658h0.984l-2.178,2.589l-0.404,0.296l0.475,0.345l2.402,2.815h-1.09L170.899,51.198z M178.536,50.922
		c0-0.494,0.061-0.938,0.186-1.324c0.123-0.391,0.303-0.718,0.537-0.984c0.232-0.27,0.518-0.475,0.854-0.613
		c0.338-0.143,0.719-0.213,1.145-0.213c0.455,0,0.854,0.076,1.197,0.229c0.342,0.152,0.627,0.366,0.855,0.639
		c0.225,0.273,0.396,0.604,0.51,0.989c0.109,0.386,0.168,0.812,0.168,1.278c0,0.495-0.062,0.938-0.188,1.326
		c-0.121,0.389-0.303,0.717-0.539,0.984s-0.523,0.473-0.859,0.613s-0.719,0.213-1.145,0.213c-0.461,0-0.859-0.078-1.199-0.229
		c-0.34-0.152-0.623-0.367-0.848-0.641c-0.225-0.272-0.393-0.603-0.506-0.99C178.591,51.816,178.536,51.389,178.536,50.922z
		 M179.45,50.922c0,0.326,0.037,0.633,0.109,0.918s0.182,0.537,0.328,0.755c0.148,0.218,0.334,0.39,0.562,0.515
		c0.227,0.125,0.494,0.189,0.807,0.189c0.559,0,1-0.193,1.326-0.576c0.324-0.381,0.488-0.982,0.488-1.801
		c0-0.32-0.037-0.623-0.107-0.908c-0.072-0.287-0.182-0.536-0.33-0.756c-0.146-0.217-0.332-0.391-0.561-0.52
		c-0.227-0.127-0.5-0.191-0.816-0.191c-0.553,0-0.992,0.195-1.316,0.582C179.614,49.52,179.45,50.116,179.45,50.922z M193.81,50.049
		l0.092-0.967h-0.033l-0.371,0.838l-1.686,2.679h-0.258l-1.771-2.687l-0.354-0.82h-0.043l0.137,0.949v3.904h-0.812V47.9h0.648
		l2.049,3.084l0.32,0.654h0.016l0.303-0.672l1.943-3.066h0.684v6.045h-0.863V50.049z M203.474,48.659h-2.945v5.286h-0.863V47.9
		h4.674v6.045h-0.865V48.659z M212.829,48.659h-1.9c-0.029,0.571-0.062,1.089-0.1,1.555s-0.086,0.89-0.143,1.265
		c-0.057,0.377-0.125,0.711-0.203,1c-0.078,0.287-0.174,0.537-0.289,0.75c-0.15,0.276-0.322,0.473-0.518,0.588
		c-0.197,0.114-0.402,0.172-0.613,0.172c-0.121,0-0.221-0.008-0.299-0.021s-0.156-0.036-0.238-0.064l0.111-0.725
		c0.07,0.016,0.141,0.025,0.209,0.025c0.07,0,0.141-0.014,0.211-0.039c0.072-0.025,0.145-0.07,0.213-0.13
		c0.068-0.062,0.135-0.146,0.197-0.255c0.088-0.149,0.168-0.352,0.244-0.605c0.074-0.253,0.139-0.575,0.197-0.967
		c0.057-0.391,0.105-0.859,0.143-1.404c0.037-0.543,0.064-1.178,0.08-1.902h3.561v6.045h-0.863V48.659z M218.685,47.9h3.654v0.759
		h-2.789v1.823h2.547v0.759h-2.547v1.944h2.832v0.76h-3.697V47.9z M228.481,51.198h-0.424v2.747h-0.863V47.9h0.863v2.779
		l0.396-0.121l2.178-2.658h0.984l-2.176,2.589l-0.408,0.296l0.477,0.345l2.402,2.815h-1.09L228.481,51.198z M240.659,53.686
		c-0.189,0.139-0.432,0.235-0.725,0.291c-0.293,0.055-0.604,0.082-0.934,0.082c-0.387,0-0.752-0.062-1.102-0.186
		c-0.348-0.125-0.654-0.314-0.918-0.57c-0.266-0.257-0.477-0.582-0.631-0.977c-0.156-0.395-0.232-0.863-0.232-1.404
		c0-0.564,0.086-1.045,0.258-1.441c0.174-0.398,0.396-0.722,0.674-0.973c0.275-0.25,0.588-0.434,0.934-0.548
		c0.344-0.116,0.688-0.173,1.027-0.173c0.381,0,0.691,0.02,0.934,0.061c0.24,0.039,0.445,0.091,0.611,0.154l-0.189,0.744
		c-0.281-0.132-0.711-0.199-1.289-0.199c-0.258,0-0.508,0.043-0.752,0.125c-0.246,0.083-0.467,0.22-0.658,0.406
		c-0.193,0.188-0.348,0.432-0.461,0.734c-0.117,0.301-0.174,0.672-0.174,1.109c0,0.393,0.055,0.736,0.166,1.033
		c0.107,0.296,0.258,0.544,0.451,0.743c0.193,0.197,0.422,0.348,0.682,0.448c0.264,0.101,0.551,0.152,0.859,0.152
		c0.283,0,0.529-0.027,0.734-0.078c0.209-0.053,0.383-0.119,0.527-0.199L240.659,53.686z M40.851,42.596
		c-1.32-2.52-3.42-4.07-6.25-4.631V1.985H31.25v22.81c0,2.971-1.08,5.551-3.22,7.66c-2.12,2.1-4.71,3.18-7.689,3.189V3.015
		l-0.07-0.03c-1.87-0.87-3.87-1.32-5.94-1.32c-3.95,0-7.35,1.41-10.14,4.2C1.41,8.635,0,12.045,0,15.995c0,3.24,1,6.16,2.98,8.69
		c1.97,2.529,4.5,4.24,7.53,5.07l0.069,0.02l2.91-2.84l-0.27-0.029c-2.761-0.281-5.12-1.48-7.021-3.561
		c-1.89-2.07-2.85-4.55-2.85-7.351c0-3.01,1.09-5.62,3.22-7.76c2.14-2.13,4.75-3.22,7.76-3.22c0.9,0,1.79,0.12,2.66,0.35v33.23
		l0.101,0.02c1.079,0.25,2.149,0.381,3.189,0.381c4.45,0,8.14-1.721,10.97-5.111v4.08c-2.04,0.391-3.779,1.42-5.18,3.061
		c-1.41,1.66-2.13,3.609-2.13,5.779c0,2.461,0.89,4.602,2.64,6.352s3.891,2.639,6.351,2.639c0.54,0,1.069-0.039,1.569-0.119
		l0.101-0.02V41.455c1.45,0.42,2.56,1.35,3.3,2.74l0.06,0.121l2.95-1.611L40.851,42.596z M31.25,41.455v10.76
		c-1.1-0.379-2.029-1.039-2.779-1.979c-0.79-0.99-1.181-2.141-1.181-3.432c0-1.25,0.391-2.389,1.181-3.389
		C29.221,42.445,30.15,41.795,31.25,41.455z M210.184,23.914l-3.06,1.439l-0.14,0.061l-11.12,5.229
		c-0.04-0.148-0.061-0.369-0.061-0.639v-5.211h-2.3c0.34-0.84,0.62-1.7,0.84-2.54c0.23-0.899,0.34-1.75,0.34-2.54
		c0-0.8-0.149-1.54-0.439-2.22c-0.3-0.68-0.771-1.24-1.42-1.67c-0.78-0.43-1.58-0.7-2.391-0.8c-0.239-0.04-0.47-0.06-0.71-0.06
		h-0.159c-0.32,0-0.641,0.02-0.94,0.06c-0.64,0.07-1.25,0.22-1.83,0.45c-0.9,0.36-1.689,0.89-2.34,1.58
		c-0.65,0.69-1.11,1.48-1.36,2.34c-0.25,0.87-0.239,1.8,0.03,2.77c0.28,0.97,0.9,1.931,1.87,2.851c1.16,1.08,2.52,1.83,4.04,2.219
		c-0.4,0.621-0.82,1.17-1.24,1.631c-0.42,0.459-0.84,0.83-1.27,1.131c-0.9,0.619-1.721,0.879-2.45,0.779
		c-0.73-0.09-1.311-0.541-1.771-1.359c-0.16-0.291-0.29-0.621-0.38-1.021c-0.02-0.039-0.03-0.08-0.03-0.129
		c-0.09-0.391-0.149-0.83-0.17-1.32c0-0.01,0-0.01,0-0.02c-0.01-0.211-0.01-0.451,0-0.691l-0.119-0.568l-0.021-0.131l-0.14-0.711
		l-1,0.711l-0.181,0.131l-0.17,0.119l-0.97,0.689l-0.14,0.111l-0.13,0.09l-4.561,3.25c-0.04-0.191-0.07-0.391-0.07-0.602v-5.27
		h-3.35v5.451c0,0.148,0.02,0.299,0.05,0.449c-1.03,0.811-2.22,1.23-3.52,1.23c-1.57,0-2.91-0.561-4-1.67
		c-1.09-1.111-1.641-2.441-1.641-3.971s0.551-2.87,1.641-3.98c1.09-1.1,2.43-1.669,4-1.669c2.26,0,3.93,1,4.979,2.98l0.061,0.109
		l2.939-1.549l-0.05-0.111c-1.67-3.169-4.34-4.779-7.93-4.779c-2.46,0-4.601,0.89-6.351,2.64c-1.75,1.76-2.64,3.889-2.64,6.36
		c0,0.49,0.04,0.961,0.11,1.43v0.01l-5.86,3.381v-1.041c0-1.209-0.26-2.318-0.76-3.279c-0.511-0.98-1.37-1.699-2.55-2.17
		l-2.141-0.75l5.42-8.1h-3.93l-4.54,6.76v-5.3h-3.35v10.111l-8.25,3.92c-0.801,0.439-1.681,0.67-2.601,0.67
		c-1.57,0-2.92-0.561-4.01-1.67c-1.08-1.111-1.63-2.48-1.63-4.1c0-1.57,0.55-2.921,1.63-4.001c1.09-1.09,2.439-1.64,4.01-1.64
		c1.3,0,2.47,0.42,3.47,1.241v2.73h3.351v-7.011h-3.351v0.37c-1.079-0.45-2.239-0.68-3.47-0.68c-2.47,0-4.6,0.89-6.35,2.64
		c-1.76,1.75-2.641,3.89-2.641,6.351c0,0.469,0.03,0.92,0.091,1.359l-6.91,3.74c-0.811,0.439-1.681,0.67-2.61,0.67
		c-1.57,0-2.91-0.561-4-1.67c-1.09-1.111-1.64-2.49-1.64-4.1c0-1.57,0.55-2.921,1.64-4.001c1.08-1.09,2.43-1.64,4-1.64
		c1.311,0,2.48,0.42,3.47,1.241v2.73h3.351v-7.011h-3.351v0.37c-1.069-0.45-2.239-0.68-3.47-0.68c-2.46,0-4.6,0.89-6.35,2.64
		c-1.75,1.75-2.641,3.89-2.641,6.351c0,1.08,0.16,2.09,0.48,3.039l-4.57,3.76v-15.35h-3.35v12.071l-3.53,1.889
		c-0.4,0.24-0.83,0.361-1.3,0.361c-0.75,0-1.41-0.281-1.96-0.83c-0.55-0.561-0.83-1.211-0.83-1.961v-11.53h-3.351v11.34l-3.649,1.93
		c-0.05-0.199-0.07-0.41-0.07-0.629v-7.441c0-1.51-0.54-2.819-1.62-3.899c-1.069-1.07-2.38-1.62-3.899-1.62
		c-0.931,0-1.8,0.22-2.601,0.64l-3.189,1.68c-1.09-1.54-2.601-2.32-4.5-2.32c-0.931,0-1.8,0.22-2.601,0.64l-2.109,1.14v-1.46h-3.351
		v10.17l-6.76,3.33v-1.041c0-1.219-0.25-2.318-0.76-3.279c-0.5-0.98-1.36-1.699-2.55-2.17l-2.141-0.75l5.42-8.1h-3.92l-4.54,6.76
		v-5.3h-3.35v17.74h3.35v-8.629l3.66,1.299c1,0.51,1.46,1.311,1.42,2.43v4.9h3.32l6.85-3.42v3.42h3.351v-12.08l3.71-2.01
		c0.31-0.16,0.649-0.24,1-0.24c0.62,0,1.16,0.22,1.58,0.65c0.439,0.439,0.649,0.93,0.649,1.52v12.16h3.351v-12.08l3.64-2.01
		c0.36-0.16,0.72-0.24,1.07-0.24c0.59,0,1.09,0.22,1.52,0.65c0.44,0.439,0.65,0.93,0.65,1.52v7.441c0,1.979,0.74,3.648,2.21,4.99
		l0.07,0.059l5.659-3c0.25,0.41,0.561,0.801,0.931,1.17c1.199,1.201,2.66,1.811,4.34,1.811c1,0,1.96-0.26,2.84-0.76l1.99-1.02v2.209
		c-3.87,3.311-5.83,6.371-5.83,9.109c0,1.641,0.46,2.951,1.37,3.9c0.91,0.951,1.989,1.441,3.22,1.441s2.31-0.471,3.22-1.41
		c0.91-0.92,1.37-2.23,1.37-3.861v-7.57l6.28-5.18c0.14,0.17,0.29,0.34,0.45,0.5c1.75,1.75,3.89,2.641,6.35,2.641
		c1.5,0,2.92-0.359,4.21-1.07l6.42-3.42c0.391,0.66,0.87,1.279,1.44,1.85c1.75,1.75,3.89,2.641,6.35,2.641
		c1.5,0,2.92-0.359,4.21-1.07l6.641-3.01v3.77h3.35v-8.629l3.66,1.299c1,0.51,1.46,1.311,1.42,2.43v4.9h3.32l7.13-4.07
		c0.359,0.621,0.819,1.201,1.359,1.74c1.75,1.75,3.891,2.641,6.351,2.641c1.67,0,3.229-0.43,4.62-1.26
		c0.319,0.42,0.67,0.83,1.06,1.221l0.07,0.068l6.16-4.33c0.279,0.82,0.699,1.541,1.229,2.15c0.74,0.84,1.7,1.391,2.86,1.621
		c1.17,0.229,2.54-0.061,4.09-0.852c0.63-0.34,1.39-1.049,2.27-2.109c0.86-1.039,1.66-2.23,2.391-3.52
		c0.069-0.01,0.13-0.02,0.17-0.041c0,0,0-0.01,0.01-0.01l0.06,2.031c0,1.979,0.801,3.66,2.4,5l0.061,0.049l15.35-7.33v-3.32
		L210.184,23.914z M95.114,44.143c0,1.291-0.4,1.92-1.24,1.92c-0.83,0-1.24-0.648-1.24-1.99c0-1.309,0.84-2.828,2.48-4.529V44.143z
		 M191.554,21.453c-0.1,0.55-0.27,1.109-0.489,1.68c-0.221,0.561-0.44,1.08-0.66,1.57l-1.37-0.459
		c-0.851-0.361-1.49-0.82-1.91-1.352c-0.42-0.539-0.67-1.1-0.75-1.649s0-1.09,0.24-1.6c0.24-0.52,0.58-0.93,1.01-1.22
		c0.41-0.28,0.89-0.42,1.43-0.42h0.11c0.59,0.02,1.229,0.25,1.91,0.69c0.3,0.35,0.49,0.76,0.54,1.22
		C191.674,20.393,191.654,20.913,191.554,21.453z M230.973,7.16c-3.62-3.64-8.069-5.49-13.2-5.49c-0.739,0-1.489,0.06-2.229,0.17V0
		h-3.35v2.83c-2.58,1.08-4.681,2.79-6.24,5.1c-1.66,2.44-2.5,5.16-2.5,8.06c0,3.561,1.272,6.846,3.534,9.422l3.246-1.453
		c-2.28-2.149-3.431-4.83-3.431-7.969c0-4.15,1.811-7.33,5.391-9.45V38.16l0.09,0.029c1.779,0.531,3.63,0.811,5.489,0.811
		c5.131,0,9.58-1.84,13.2-5.461c3.63-3.629,5.46-8.068,5.46-13.209C236.433,15.24,234.603,10.81,230.973,7.16z M217.772,35.65
		c-0.739,0-1.489-0.041-2.229-0.121V5.24c0.75-0.14,1.5-0.22,2.229-0.22c4.2,0,7.841,1.51,10.82,4.49
		c2.98,2.98,4.49,6.62,4.49,10.82c0,4.209-1.51,7.85-4.49,10.831C225.613,34.141,221.973,35.65,217.772,35.65z M275.965,31.27v0.01
		l-3.97,1.93L275.965,31.27z M272.165,29.73v0.01l3.1-1.471L272.165,29.73z M334.995,24.83l-7.14,5.1
		c-0.051-0.189-0.07-0.391-0.07-0.609v-5.271h-3.35v5.461c0,0.15,0.02,0.301,0.05,0.449c-1.04,0.811-2.221,1.221-3.521,1.221
		c-1.569,0-2.92-0.561-4-1.66c-1.09-1.109-1.64-2.449-1.64-3.98c0-1.529,0.55-2.859,1.64-3.97c1.08-1.11,2.431-1.67,4-1.67
		c2.25,0,3.931,1,4.971,2.97l0.06,0.11l2.95-1.54l-0.061-0.109c-1.67-3.17-4.34-4.781-7.92-4.781c-2.46,0-4.6,0.89-6.35,2.64
		s-2.641,3.891-2.641,6.35c0,0.961,0.141,1.881,0.41,2.74l-3.72,1.971c-0.03-0.201-0.04-0.4-0.04-0.621V16.74h-3.35v5.7h-7.62v-5.89
		h-3.351V27.67l-4.64,2.459c-0.05-0.189-0.08-0.398-0.08-0.619v-12.65h-3.35v12.08l-3.53,1.891c-0.4,0.23-0.83,0.35-1.3,0.35
		c-0.75,0-1.41-0.279-1.96-0.83s-0.83-1.209-0.83-1.959V16.859h-3.351v11.41l-3.1,1.471l-1.91,0.91
		c-0.04-0.15-0.069-0.371-0.069-0.641V16.56h-3.381l-0.02,0.09c-0.33,1.23-0.74,2.5-1.21,3.77s-0.98,2.51-1.51,3.68
		c-0.54,1.16-1.11,2.25-1.7,3.24c-0.601,0.98-1.21,1.811-1.82,2.459c-0.47,0.512-0.95,0.801-1.439,0.861
		c-0.471,0.061-0.881-0.09-1.23-0.461c-0.35-0.369-0.62-0.949-0.8-1.709s-0.2-1.711-0.03-2.801l0.021-0.141h-2.841l-0.029,0.08
		c-0.38,1.131-0.45,2.33-0.221,3.57c0.23,1.23,0.69,2.291,1.36,3.15c0.67,0.871,1.561,1.439,2.64,1.689
		c1.091,0.25,2.311-0.039,3.671-0.889c0.42-0.34,0.899-0.84,1.42-1.48c0.51-0.631,1.01-1.35,1.489-2.121
		c0.48-0.77,0.94-1.578,1.37-2.398c0.32-0.602,0.601-1.201,0.851-1.781v4.141c0,1.98,0.81,3.66,2.399,5l0.061,0.051l2.76-1.352
		l3.97-1.939v0.01c0.28,0.52,0.65,1,1.101,1.451c1.199,1.199,2.659,1.799,4.34,1.799c1.01,0,1.96-0.25,2.84-0.75l2.68-1.369
		c0.37,0.789,0.88,1.49,1.521,2.09l0.06,0.061l5.8-3.07v2.73h3.351v-8.861h7.62v4.27c0,1.971,0.729,3.65,2.149,4.99l0.07,0.061
		l6.52-3.459c0.181,0.229,0.391,0.449,0.601,0.67c1.75,1.75,3.89,2.639,6.35,2.639c1.67,0,3.221-0.42,4.61-1.26
		c0.32,0.43,0.68,0.84,1.07,1.23l0.069,0.07l8.891-6.26l0.069-0.051L334.995,24.83z M255.045,22.49
		c-0.89-2.341-2.479-4.041-4.74-5.061c-2.26-1.02-4.569-1.1-6.869-0.23c-2.311,0.87-3.99,2.46-5.011,4.72
		c-1.02,2.26-1.09,4.57-0.22,6.869c0.87,2.311,2.45,3.99,4.71,5.01c1.22,0.551,2.46,0.83,3.69,0.83c1.06,0,2.13-0.209,3.189-0.609
		c2.03-0.76,3.61-2.15,4.7-4.15l1.08-3.479C255.675,25.109,255.495,23.799,255.045,22.49z M247.295,31.209
		c-0.76,0.102-1.51,0.031-2.22-0.18c-0.72-0.219-1.37-0.549-1.92-0.99c-0.57-0.439-1.04-0.99-1.431-1.629
		c-0.38-0.641-0.619-1.35-0.71-2.111c-0.1-0.76-0.029-1.51,0.181-2.219c0.22-0.721,0.55-1.371,0.99-1.931
		c0.439-0.56,0.989-1.04,1.63-1.42c0.64-0.38,1.35-0.62,2.109-0.72c0.23-0.02,0.46-0.04,0.681-0.04c0.52,0,1.04,0.08,1.54,0.23
		c0.72,0.22,1.359,0.55,1.93,0.99c0.56,0.439,1.04,0.99,1.42,1.63s0.63,1.351,0.72,2.11v0.061c0.101,0.75,0.03,1.5-0.18,2.219
		c-0.22,0.721-0.55,1.361-0.99,1.932c-0.439,0.559-0.99,1.029-1.63,1.389C248.775,30.891,248.055,31.119,247.295,31.209z
		 M180.032,17.53h-0.159c-0.32,0-0.641,0.02-0.94,0.06h1.81C180.503,17.55,180.272,17.53,180.032,17.53z M343.937,0.027v8.734
		c0,0.592-0.175,1.098-0.597,1.518c-0.386,0.378-0.891,0.592-1.419,0.592V0.692c0,0-0.395,0.188-0.446,0.213h-0.002
		c-0.002,0.002-0.002,0.002-0.002,0.002c-0.044,0.019-0.082,0.044-0.125,0.07c-2.029,1.114-3.473,3.054-3.951,5.276h1.055
		c0.368-1.485,1.22-2.799,2.45-3.759v9.208l0.001,0.221c0,0,0.621,0.017,0.854,0.017c0.856,0,1.591-0.289,2.183-0.852v3.607
		c-0.185-0.035-0.4-0.073-0.5-0.1c-2.592-0.654-4.532-2.726-5.059-5.292h-1.037c0.53,3.044,2.793,5.514,5.847,6.287
		c0.237,0.062,0.852,0.167,0.933,0.176l0.838,0.071V0.027H343.937z M345.922,15.879l0.347-0.051
		c0.029-0.005,1.018-0.206,1.185-0.249c3.304-0.852,5.689-3.722,5.899-7.193c0.122-2.085-0.565-4.103-1.943-5.682
		c-1.373-1.573-3.275-2.531-5.352-2.693L345.92,0 M352.328,8.323c-0.186,3.091-2.387,5.665-5.384,6.32V1.182
		C350.229,1.912,352.532,4.943,352.328,8.323z"/>
</g>
</svg>
