<?xml version="1.0" encoding="iso-8859-1"?>
<!-- Generator: Adobe Illustrator 15.0.0, SVG Export Plug-In . SVG Version: 6.00 Build 0)  -->
<!DOCTYPE svg PUBLIC "-//W3C//DTD SVG 1.1//EN" "http://www.w3.org/Graphics/SVG/1.1/DTD/svg11.dtd">
<svg version="1.1" id="Layer_1" xmlns="http://www.w3.org/2000/svg" xmlns:xlink="http://www.w3.org/1999/xlink" x="0px" y="0px"
	 width="790.14px" height="44.573px" viewBox="0 0 790.14 44.573" style="enable-background:new 0 0 790.14 44.573;"
	 xml:space="preserve">
<path style="fill:#669900;" d="M29.94,36.14H16.91l-6.58-14H10v14H0v-35h10v13h0.33l6.34-13h12.24L18.87,17.665L29.94,36.14z
	 M65.12,18.43c0,2.86-0.52,5.43-1.56,7.71c-1.04,2.27-2.43,4.21-4.17,5.8c-1.74,1.601-3.75,2.82-6.04,3.66
	c-0.56,0.21-1.13,0.39-1.71,0.54H40.56c-0.57-0.15-1.14-0.33-1.7-0.54c-2.29-0.84-4.31-2.06-6.05-3.66
	c-1.74-1.59-3.13-3.53-4.17-5.8c-1.04-2.28-1.56-4.85-1.56-7.71c0.03-2.86,0.57-5.43,1.61-7.7c1.04-2.28,2.43-4.21,4.17-5.81
	c1.74-1.59,3.75-2.81,6.03-3.65C41.16,0.42,43.57,0,46.1,0c2.54,0,4.95,0.42,7.25,1.27c2.29,0.84,4.3,2.06,6.04,3.65
	c1.74,1.6,3.13,3.53,4.17,5.81C64.6,13,65.12,15.57,65.12,18.43z M53.86,18.43c0-1.43-0.22-2.69-0.66-3.78
	c-0.44-1.09-1.02-2-1.73-2.75c-0.72-0.75-1.54-1.31-2.47-1.68c-0.92-0.38-1.89-0.57-2.9-0.57c-0.97,0-1.93,0.19-2.87,0.57
	c-0.95,0.37-1.78,0.93-2.49,1.68c-0.72,0.75-1.29,1.66-1.73,2.75c-0.44,1.09-0.66,2.35-0.66,3.78s0.22,2.69,0.66,3.78
	c0.44,1.09,1.01,2.01,1.73,2.76c0.71,0.75,1.54,1.31,2.49,1.68c0.94,0.38,1.9,0.56,2.87,0.56c1.01,0,1.98-0.18,2.9-0.56
	c0.93-0.37,1.75-0.93,2.47-1.68c0.71-0.75,1.29-1.67,1.73-2.76C53.64,21.12,53.86,19.86,53.86,18.43z M94.9,1.14l-7.81,10.97
	l-7.9-10.97H69v35h10V15.21l8.045,10.78L95,15.21v20.93h11v-35H94.9z M112,1.14v35h10v-26h8v26h11v-35H112z M150,1.14v23.63
	c0,1.63-0.9,2.44-2.43,2.44c-0.45,0-1.02-0.06-1.44-0.19c-0.43-0.13-0.73-0.33-0.93-0.59l-1.85,9.56c0.1,0.051,0.21,0.101,0.33,0.15
	h10.66c1.3-0.49,2.37-1.22,3.19-2.2c1.64-1.95,2.47-4.68,2.47-8.19V10.14h7v26h10v-35H150z M193,22.14h8.58l1.8-8H193v-4h11.26
	l1.9-9H183v35h21.26l1.9-9H193V22.14z M229.86,17.665L239.91,1.14h-12.24l-6.34,13H221v-13h-10v35h10v-14h0.33l6.58,14h13.02
	L229.86,17.665z M262.34,26.33c-1.07,0.59-2.35,0.88-3.85,0.88c-0.98,0-1.93-0.18-2.88-0.56c-0.94-0.37-1.77-0.93-2.48-1.68
	c-0.72-0.75-1.3-1.67-1.74-2.76c-0.43-1.09-0.65-2.35-0.65-3.78s0.22-2.69,0.65-3.78c0.44-1.09,1.02-2,1.74-2.75
	c0.71-0.75,1.54-1.31,2.48-1.68c0.95-0.38,1.9-0.57,2.88-0.57c1.4,0,2.65,0.35,3.76,1.03c1.1,0.68,2.04,1.48,2.82,2.39l6.39-6.98
	c-1.4-1.91-3.21-3.41-5.43-4.48C263.8,0.54,261.29,0,258.49,0c-2.5,0-4.9,0.42-7.19,1.27c-2.3,0.84-4.32,2.06-6.07,3.65
	c-1.76,1.6-3.16,3.53-4.2,5.81c-1.04,2.27-1.56,4.84-1.56,7.7s0.52,5.43,1.56,7.71c1.04,2.27,2.43,4.21,4.17,5.8
	c1.74,1.601,3.76,2.82,6.05,3.66c0.56,0.21,1.13,0.39,1.7,0.54h11.02c0.57-0.15,1.12-0.33,1.67-0.54c2.22-0.84,4.17-2.08,5.82-3.71
	l-6.39-8.09C264.33,24.9,263.42,25.75,262.34,26.33z M305.11,1.14l-4.34,14.14l-5.61-14.14h-11.07l11.32,24.99
	c0.26,0.52,0.27,0.86,0.05,1.3c-0.23,0.44-0.75,0.66-1.56,0.66c-0.46,0-0.99-0.09-1.61-0.27c-0.62-0.18-1.14-0.4-1.56-0.66
	l-2.34,8.83c0.14,0.051,0.28,0.101,0.43,0.15h9.66c0.92-0.37,1.72-0.824,2.42-1.494c1.57-1.531,2.91-3.586,4.02-6.276l11.22-27.23
	H305.11z M338.37,17.665L348.42,1.14h-12.24l-6.34,13H330v-13h-11v35h11v-14h-0.16l6.58,14h13.02L338.37,17.665z M351,1.14l-1.85,9
	H358v26h10v-26h7l1.85-9H351z M397.87,1.14l-4.34,14.14l-5.61-14.14h-11.07l11.32,24.99c0.26,0.52,0.27,0.86,0.04,1.3
	c-0.22,0.44-0.74,0.66-1.56,0.66c-0.45,0-0.99-0.09-1.61-0.27c-0.61-0.18-1.13-0.4-1.56-0.66l-2.34,8.83
	c0.14,0.051,0.29,0.101,0.44,0.15h9.65c0.92-0.37,1.72-0.824,2.42-1.494c1.58-1.531,2.92-3.586,4.03-6.276l11.21-27.23H397.87z
	 M429.06,26.33c-1.07,0.59-2.36,0.88-3.85,0.88c-0.98,0-1.94-0.18-2.88-0.56c-0.95-0.37-1.77-0.93-2.49-1.68
	c-0.71-0.75-1.29-1.67-1.73-2.76c-0.44-1.09-0.66-2.35-0.66-3.78s0.22-2.69,0.66-3.78c0.44-1.09,1.02-2,1.73-2.75
	c0.72-0.75,1.54-1.31,2.49-1.68c0.94-0.38,1.9-0.57,2.88-0.57c1.39,0,2.64,0.35,3.75,1.03s2.05,1.48,2.83,2.39l6.39-6.98
	c-1.4-1.91-3.209-3.41-5.439-4.48C430.51,0.54,428,0,425.21,0c-2.51,0-4.91,0.42-7.2,1.27c-2.29,0.84-4.31,2.06-6.07,3.65
	c-1.76,1.6-3.15,3.53-4.19,5.81c-1.05,2.27-1.56,4.84-1.56,7.7s0.51,5.43,1.56,7.71c1.04,2.27,2.43,4.21,4.17,5.8
	c1.74,1.601,3.75,2.82,6.04,3.66c0.56,0.21,1.13,0.39,1.71,0.54h11.01c0.57-0.15,1.12-0.33,1.67-0.54c2.23-0.84,4.17-2.08,5.83-3.71
	l-6.39-8.09C431.04,24.9,430.13,25.75,429.06,26.33z M460.08,26.33c-1.08,0.59-2.359,0.88-3.859,0.88
	c-0.971,0-1.931-0.18-2.871-0.56c-0.949-0.37-1.779-0.93-2.49-1.68c-0.719-0.75-1.289-1.67-1.729-2.76
	c-0.44-1.09-0.659-2.35-0.659-3.78s0.219-2.69,0.659-3.78c0.44-1.09,1.011-2,1.729-2.75c0.711-0.75,1.541-1.31,2.49-1.68
	c0.94-0.38,1.9-0.57,2.871-0.57c1.399,0,2.649,0.35,3.76,1.03c1.1,0.68,2.05,1.48,2.829,2.39l6.381-6.98
	c-1.391-1.91-3.21-3.41-5.431-4.48c-2.23-1.07-4.74-1.61-7.539-1.61c-2.5,0-4.9,0.42-7.191,1.27c-2.289,0.84-4.319,2.06-6.069,3.65
	c-1.76,1.6-3.16,3.53-4.2,5.81c-1.04,2.27-1.56,4.84-1.56,7.7s0.52,5.43,1.56,7.71c1.04,2.27,2.43,4.21,4.17,5.8
	c1.74,1.601,3.76,2.82,6.051,3.66c0.56,0.21,1.129,0.39,1.699,0.54H461.7c0.569-0.15,1.12-0.33,1.67-0.54
	c2.22-0.84,4.17-2.08,5.82-3.71l-6.381-8.09C462.06,24.9,461.15,25.75,460.08,26.33z M501.23,36.14l-0.091-0.15h0.011L501.23,36.14z
	 M500.7,35.17l0.439,0.819h-0.64l0.17-0.869l0.01,0.02L500.7,35.17z M481.63,22.14H482v0.79L481.63,22.14z M481.63,14.14l0.37-0.76
	v0.76H481.63z M501.14,36.14h-0.64l0.17-0.944L490.16,17.63l10.05-16.49h-12.24L482,13.38v0.76h-0.37l0.37-0.76V1.14h-11v35h11
	V22.93l-0.37-0.79H482v0.79l6.21,13.21h13.021H501.14z M531.71,36.14H520.6l-1.27-9h-6.44l-1.27,9h-10.39l-0.091-0.15l-0.46-0.72
	l0.021-0.1l0.01-0.05l6.67-33.98h17.46L531.71,36.14z M518.16,19.14l-1.42-9h-1.271l-1.41,9H518.16z M560,1.14v35h-10v-9h-1.02
	l-3.9,9h-12.63l6.53-10.651c-2.44-1.6-4.141-3.321-5.101-5.021c-0.95-1.71-1.43-3.842-1.43-6.412c0-1.91,0.319-3.663,0.97-5.273
	s1.59-2.968,2.83-4.138s2.74-2.015,4.51-2.665c1.771-0.65,3.78-0.84,6.021-0.84H560z M550,10.14h-2.97
	c-1.2,0-2.16,0.049-2.851,0.699c-0.699,0.65-1.05,1.508-1.05,3.128c0,1.561,0.351,2.618,1.05,3.298
	c0.69,0.68,1.65,0.875,2.851,0.875H550V10.14z M612,27.14h-3v-26h-28v19.293c0,0.91,0.025,1.772-0.135,2.584
	c-0.164,0.814-0.337,1.529-0.629,2.146c-0.294,0.619-0.617,1.079-1.023,1.452c-0.407,0.375-0.825,0.525-1.313,0.525H576v15.532
	l10,1.9V36.14h17v8.433l9-1.9V27.14z M598,27.14h-8.152c0.455,0,0.607-1.069,0.918-1.915c0.309-0.846,0.234-2.159,0.234-4.012V10.14
	h7V27.14z M651.73,18.43c0,2.86-0.521,5.43-1.561,7.71c-1.04,2.27-2.43,4.21-4.17,5.8c-1.74,1.601-3.75,2.82-6.04,3.66
	c-0.56,0.21-1.13,0.39-1.7,0.54h-11.08c-0.58-0.15-1.149-0.33-1.71-0.54c-2.29-0.84-4.3-2.06-6.05-3.66
	c-1.729-1.59-3.13-3.53-4.17-5.8c-1.04-2.28-1.55-4.85-1.55-7.71c0.03-2.86,0.56-5.43,1.6-7.7c1.04-2.28,2.431-4.21,4.17-5.81
	c1.74-1.59,3.75-2.81,6.03-3.65c2.27-0.85,4.68-1.27,7.22-1.27c2.53,0,4.95,0.42,7.24,1.27c2.29,0.84,4.3,2.06,6.04,3.65
	c1.74,1.6,3.13,3.53,4.17,5.81C651.21,13,651.73,15.57,651.73,18.43z M640.47,18.43c0-1.43-0.22-2.69-0.66-3.78
	c-0.439-1.09-1.02-2-1.729-2.75c-0.72-0.75-1.54-1.31-2.46-1.68c-0.93-0.38-1.9-0.57-2.9-0.57c-0.979,0-1.939,0.19-2.88,0.57
	c-0.95,0.37-1.77,0.93-2.49,1.68c-0.71,0.75-1.29,1.66-1.729,2.75c-0.44,1.09-0.66,2.35-0.66,3.78s0.22,2.69,0.66,3.78
	c0.439,1.09,1.02,2.01,1.729,2.76c0.721,0.75,1.54,1.31,2.49,1.68c0.94,0.38,1.9,0.56,2.88,0.56c1,0,1.971-0.18,2.9-0.56
	c0.92-0.37,1.74-0.93,2.46-1.68c0.71-0.75,1.29-1.67,1.729-2.76C640.25,21.12,640.47,19.86,640.47,18.43z M657,1.14v23.63
	c0,1.63-0.89,2.44-2.41,2.44c-0.46,0-1.02-0.06-1.439-0.19s-0.73-0.33-0.931-0.59l-1.85,9.56c0.1,0.051,0.21,0.101,0.33,0.15h10.66
	c1.3-0.49,2.359-1.22,3.18-2.2c1.64-1.95,2.46-4.68,2.46-8.19V10.14h7v26h10v-35H657z M710.04,1.14L701,18.43V1.14h-10v35h10.11
	L710,18.43v17.71h11v-35H710.04z M745,1.14v12h-7v-12h-11v35h11v-14h7v14h11v-35H745z M790.14,36.14h-11.12l-1.27-9h-6.43l-1.271,9
	h-11.12l6.87-35h17.46L790.14,36.14z M776.58,19.14l-1.41-9h-1.27l-1.41,9H776.58z"/>
</svg>
